<svg width="1104" height="30" viewBox="0 0 1104 30" fill="none" xmlns="http://www.w3.org/2000/svg">
<path fill-rule="evenodd" clip-rule="evenodd" d="M61.606 19.126C64.954 19.126 66.628 17.884 66.628 15.4C66.628 14.776 66.442 14.224 66.07 13.744C65.698 13.264 65.05 12.76 64.126 12.232C63.838 12.064 63.484 11.869 63.064 11.647C62.644 11.425 62.314 11.248 62.074 11.116C61.834 10.984 61.588 10.831 61.336 10.657C61.084 10.483 60.901 10.315 60.787 10.153C60.673 9.991 60.616 9.82 60.616 9.64C60.616 9.064 60.97 8.776 61.678 8.776C62.122 8.776 62.608 8.887 63.136 9.109C63.664 9.331 64.144 9.553 64.576 9.775C65.008 9.997 65.332 10.108 65.548 10.108C65.68 10.108 65.803 10.081 65.917 10.027C66.031 9.973 66.127 9.883 66.205 9.757C66.283 9.631 66.322 9.478 66.322 9.298C66.322 8.638 65.818 8.014 64.81 7.426C63.802 6.838 62.584 6.544 61.156 6.544C59.5 6.544 58.222 6.862 57.322 7.498C56.422 8.134 55.972 8.956 55.972 9.964C55.972 10.276 56.044 10.615 56.188 10.981C56.332 11.347 56.563 11.716 56.881 12.088C57.199 12.46 57.58 12.772 58.024 13.024C58.36 13.216 58.708 13.408 59.068 13.6C59.428 13.792 59.719 13.948 59.941 14.068L60.607 14.428C60.829 14.548 61.003 14.647 61.129 14.725C61.255 14.803 61.369 14.887 61.471 14.977C61.573 15.067 61.645 15.157 61.687 15.247C61.729 15.337 61.75 15.436 61.75 15.544C61.75 15.916 61.48 16.102 60.94 16.102C60.352 16.102 59.578 15.943 58.618 15.625C57.658 15.307 57.052 15.148 56.8 15.148C56.464 15.148 56.209 15.241 56.035 15.427C55.861 15.613 55.774 15.838 55.774 16.102C55.774 16.342 55.864 16.6 56.044 16.876C56.224 17.152 56.491 17.422 56.845 17.686C57.199 17.95 57.607 18.19 58.069 18.406C58.531 18.622 59.071 18.796 59.689 18.928C60.307 19.06 60.946 19.126 61.606 19.126ZM80.884 19C81.184 19 81.433 18.979 81.631 18.937C81.829 18.895 82.009 18.811 82.171 18.685C82.333 18.559 82.459 18.4 82.549 18.208C82.639 18.016 82.714 17.752 82.774 17.416C82.834 17.08 82.873 16.702 82.891 16.282C82.909 15.862 82.918 15.334 82.918 14.698C82.918 13.174 82.732 12.088 82.36 11.44C81.988 10.792 81.376 10.468 80.524 10.468C79.18 10.468 78.046 10.804 77.122 11.476L76.942 11.62C76.546 10.852 75.904 10.468 75.016 10.468C74.428 10.468 73.915 10.534 73.477 10.666C73.039 10.798 72.592 11.032 72.136 11.368C71.872 10.732 71.248 10.414 70.264 10.414C69.712 10.414 69.271 10.6 68.941 10.972C68.611 11.344 68.446 11.836 68.446 12.448V16.876C68.446 17.632 68.575 18.175 68.833 18.505C69.091 18.835 69.574 19 70.282 19C71.038 19 71.566 18.859 71.866 18.577C72.166 18.295 72.316 17.794 72.316 17.074V14.572C72.316 14.176 72.385 13.855 72.523 13.609C72.661 13.363 72.838 13.24 73.054 13.24C73.594 13.24 73.864 13.576 73.864 14.248V17.506C73.864 17.83 73.918 18.1 74.026 18.316C74.134 18.532 74.317 18.7 74.575 18.82C74.833 18.94 75.172 19 75.592 19C75.868 19 76.096 18.979 76.276 18.937C76.456 18.895 76.618 18.811 76.762 18.685C76.906 18.559 77.02 18.4 77.104 18.208C77.188 18.016 77.26 17.752 77.32 17.416C77.38 17.08 77.419 16.702 77.437 16.282C77.455 15.862 77.464 15.334 77.464 14.698C77.464 14.278 77.524 13.93 77.644 13.654C77.764 13.378 77.944 13.24 78.184 13.24C78.724 13.24 78.994 13.576 78.994 14.248V17.506C78.994 17.83 79.054 18.1 79.174 18.316C79.294 18.532 79.495 18.7 79.777 18.82C80.059 18.94 80.428 19 80.884 19ZM87.985 8.974C87.655 9.178 87.166 9.28 86.518 9.28C85.954 9.28 85.486 9.172 85.114 8.956C84.742 8.74 84.556 8.392 84.556 7.912C84.556 7.516 84.727 7.189 85.069 6.931C85.411 6.673 85.894 6.544 86.518 6.544C87.826 6.544 88.48 7 88.48 7.912C88.48 8.416 88.315 8.77 87.985 8.974ZM86.428 19C87.184 19 87.712 18.859 88.012 18.577C88.312 18.295 88.462 17.794 88.462 17.074V12.394C88.462 11.638 88.282 11.119 87.922 10.837C87.562 10.555 87.058 10.414 86.41 10.414C85.858 10.414 85.417 10.6 85.087 10.972C84.757 11.344 84.592 11.836 84.592 12.448V16.876C84.592 17.632 84.721 18.175 84.979 18.505C85.237 18.835 85.72 19 86.428 19ZM93.574 18.37C93.25 18.79 92.752 19 92.08 19C91.408 19 90.916 18.811 90.604 18.433C90.292 18.055 90.136 17.386 90.136 16.426L90.1 8.83C90.1 8.518 90.133 8.242 90.199 8.002C90.265 7.762 90.355 7.558 90.469 7.39C90.583 7.222 90.724 7.084 90.892 6.976C91.06 6.868 91.243 6.79 91.441 6.742C91.639 6.694 91.852 6.67 92.08 6.67C92.74 6.67 93.235 6.802 93.565 7.066C93.895 7.33 94.06 7.864 94.06 8.668V16.282C94.06 17.254 93.898 17.95 93.574 18.37ZM100.666 19.108C101.314 19.108 101.92 19 102.484 18.784C103.048 18.568 103.501 18.307 103.843 18.001C104.185 17.695 104.452 17.389 104.644 17.083C104.836 16.777 104.932 16.516 104.932 16.3C104.932 16.12 104.875 15.97 104.761 15.85C104.647 15.73 104.488 15.67 104.284 15.67C104.164 15.67 103.969 15.736 103.699 15.868C103.429 16 103.18 16.096 102.952 16.156C102.412 16.288 101.884 16.354 101.368 16.354C100.888 16.354 100.492 16.243 100.18 16.021C99.868 15.799 99.652 15.496 99.532 15.112L102.07 15.094C102.37 15.094 102.652 15.067 102.916 15.013C103.18 14.959 103.408 14.881 103.6 14.779C103.792 14.677 103.963 14.563 104.113 14.437C104.263 14.311 104.383 14.173 104.473 14.023C104.563 13.873 104.629 13.72 104.671 13.564C104.713 13.408 104.734 13.246 104.734 13.078C104.734 12.214 104.407 11.533 103.753 11.035C103.099 10.537 102.07 10.288 100.666 10.288C99.178 10.288 97.963 10.699 97.021 11.521C96.079 12.343 95.608 13.462 95.608 14.878C95.608 16.186 96.085 17.218 97.039 17.974C97.993 18.73 99.202 19.108 100.666 19.108ZM99.676 12.871C99.556 13.201 99.478 13.564 99.442 13.96C100.27 13.948 100.72 13.942 100.792 13.942C100.972 13.942 101.104 13.834 101.188 13.618C101.248 13.462 101.278 13.246 101.278 12.97C101.278 12.214 101.05 11.836 100.594 11.836C100.426 11.836 100.261 11.926 100.099 12.106C99.937 12.286 99.796 12.541 99.676 12.871ZM112.204 19.126C115.552 19.126 117.226 17.884 117.226 15.4C117.226 14.776 117.04 14.224 116.668 13.744C116.296 13.264 115.648 12.76 114.724 12.232C114.436 12.064 114.082 11.869 113.662 11.647C113.242 11.425 112.912 11.248 112.672 11.116C112.432 10.984 112.186 10.831 111.934 10.657C111.682 10.483 111.499 10.315 111.385 10.153C111.271 9.991 111.214 9.82 111.214 9.64C111.214 9.064 111.568 8.776 112.276 8.776C112.72 8.776 113.206 8.887 113.734 9.109C114.262 9.331 114.742 9.553 115.174 9.775C115.606 9.997 115.93 10.108 116.146 10.108C116.278 10.108 116.401 10.081 116.515 10.027C116.629 9.973 116.725 9.883 116.803 9.757C116.881 9.631 116.92 9.478 116.92 9.298C116.92 8.638 116.416 8.014 115.408 7.426C114.4 6.838 113.182 6.544 111.754 6.544C110.098 6.544 108.82 6.862 107.92 7.498C107.02 8.134 106.57 8.956 106.57 9.964C106.57 10.276 106.642 10.615 106.786 10.981C106.93 11.347 107.161 11.716 107.479 12.088C107.797 12.46 108.178 12.772 108.622 13.024C108.958 13.216 109.306 13.408 109.666 13.6C110.026 13.792 110.317 13.948 110.539 14.068L111.205 14.428C111.427 14.548 111.601 14.647 111.727 14.725C111.853 14.803 111.967 14.887 112.069 14.977C112.171 15.067 112.243 15.157 112.285 15.247C112.327 15.337 112.348 15.436 112.348 15.544C112.348 15.916 112.078 16.102 111.538 16.102C110.95 16.102 110.176 15.943 109.216 15.625C108.256 15.307 107.65 15.148 107.398 15.148C107.062 15.148 106.807 15.241 106.633 15.427C106.459 15.613 106.372 15.838 106.372 16.102C106.372 16.342 106.462 16.6 106.642 16.876C106.822 17.152 107.089 17.422 107.443 17.686C107.797 17.95 108.205 18.19 108.667 18.406C109.129 18.622 109.669 18.796 110.287 18.928C110.905 19.06 111.544 19.126 112.204 19.126ZM125.416 18.91C124.948 19.054 124.456 19.126 123.94 19.126C122.452 19.126 121.228 18.727 120.268 17.929C119.308 17.131 118.828 16.036 118.828 14.644C118.828 13.756 119.047 12.979 119.485 12.313C119.923 11.647 120.526 11.143 121.294 10.801C122.062 10.459 122.944 10.288 123.94 10.288C124.888 10.288 125.671 10.399 126.289 10.621C126.907 10.843 127.348 11.14 127.612 11.512C127.876 11.884 128.008 12.328 128.008 12.844C128.008 13.072 127.963 13.306 127.873 13.546C127.783 13.786 127.645 14.026 127.459 14.266C127.273 14.506 127 14.701 126.64 14.851C126.28 15.001 125.86 15.076 125.38 15.076C125.164 15.076 124.987 15.064 124.849 15.04C124.711 15.016 124.567 14.965 124.417 14.887C124.267 14.809 124.156 14.68 124.084 14.5C124.012 14.32 123.976 14.092 123.976 13.816C123.976 13.576 124.021 13.285 124.111 12.943C124.201 12.601 124.246 12.376 124.246 12.268C124.246 11.992 124.09 11.854 123.778 11.854C123.55 11.854 123.346 11.98 123.166 12.232C122.986 12.484 122.848 12.799 122.752 13.177C122.656 13.555 122.608 13.948 122.608 14.356C122.608 14.956 122.791 15.442 123.157 15.814C123.523 16.186 124.018 16.372 124.642 16.372C125.254 16.372 125.782 16.3 126.226 16.156C126.406 16.108 126.625 16.018 126.883 15.886C127.141 15.754 127.324 15.688 127.432 15.688C127.6 15.688 127.738 15.718 127.846 15.778C127.954 15.838 128.029 15.91 128.071 15.994C128.113 16.078 128.134 16.168 128.134 16.264C128.134 16.432 128.077 16.636 127.963 16.876C127.849 17.116 127.672 17.368 127.432 17.632C127.192 17.896 126.913 18.139 126.595 18.361C126.277 18.583 125.884 18.766 125.416 18.91ZM137.242 19C137.494 19 137.71 18.982 137.89 18.946C138.07 18.91 138.235 18.853 138.385 18.775C138.535 18.697 138.658 18.586 138.754 18.442C138.85 18.298 138.934 18.124 139.006 17.92C139.078 17.716 139.132 17.455 139.168 17.137C139.204 16.819 139.231 16.468 139.249 16.084C139.267 15.7 139.276 15.244 139.276 14.716C139.276 13.684 139.192 12.85 139.024 12.214C138.856 11.578 138.598 11.113 138.25 10.819C137.902 10.525 137.44 10.378 136.864 10.378C135.592 10.378 134.512 10.648 133.624 11.188V8.578C133.624 7.774 133.462 7.24 133.138 6.976C132.814 6.712 132.334 6.58 131.698 6.58C131.098 6.58 130.618 6.754 130.258 7.102C129.898 7.45 129.718 7.996 129.718 8.74L129.754 16.408C129.754 17.368 129.91 18.037 130.222 18.415C130.534 18.793 131.026 18.982 131.698 18.982C132.346 18.982 132.829 18.775 133.147 18.361C133.465 17.947 133.624 17.248 133.624 16.264V14.284C133.624 14.152 133.633 14.032 133.651 13.924C133.669 13.816 133.699 13.723 133.741 13.645C133.783 13.567 133.831 13.495 133.885 13.429C133.939 13.363 133.999 13.312 134.065 13.276C134.131 13.24 134.203 13.21 134.281 13.186C134.359 13.162 134.446 13.15 134.542 13.15C135.07 13.15 135.334 13.492 135.334 14.176L135.352 17.506C135.352 18.01 135.499 18.385 135.793 18.631C136.087 18.877 136.57 19 137.242 19ZM149.365 17.956C148.423 18.736 147.238 19.126 145.81 19.126C144.874 19.126 144.031 18.958 143.281 18.622C142.531 18.286 141.931 17.782 141.481 17.11C141.031 16.438 140.806 15.652 140.806 14.752C140.806 13.384 141.274 12.298 142.21 11.494C143.146 10.69 144.346 10.288 145.81 10.288C147.274 10.288 148.468 10.69 149.392 11.494C150.316 12.298 150.778 13.384 150.778 14.752C150.778 16.108 150.307 17.176 149.365 17.956ZM145.81 17.038C145.498 17.038 145.258 16.807 145.09 16.345C144.922 15.883 144.838 15.346 144.838 14.734C144.838 14.338 144.874 13.966 144.946 13.618C145.018 13.27 145.132 12.976 145.288 12.736C145.444 12.496 145.624 12.376 145.828 12.376C146.128 12.376 146.356 12.613 146.512 13.087C146.668 13.561 146.746 14.11 146.746 14.734C146.746 15.358 146.668 15.898 146.512 16.354C146.356 16.81 146.122 17.038 145.81 17.038ZM160.723 17.956C159.781 18.736 158.596 19.126 157.168 19.126C156.232 19.126 155.389 18.958 154.639 18.622C153.889 18.286 153.289 17.782 152.839 17.11C152.389 16.438 152.164 15.652 152.164 14.752C152.164 13.384 152.632 12.298 153.568 11.494C154.504 10.69 155.704 10.288 157.168 10.288C158.632 10.288 159.826 10.69 160.75 11.494C161.674 12.298 162.136 13.384 162.136 14.752C162.136 16.108 161.665 17.176 160.723 17.956ZM157.168 17.038C156.856 17.038 156.616 16.807 156.448 16.345C156.28 15.883 156.196 15.346 156.196 14.734C156.196 14.338 156.232 13.966 156.304 13.618C156.376 13.27 156.49 12.976 156.646 12.736C156.802 12.496 156.982 12.376 157.186 12.376C157.486 12.376 157.714 12.613 157.87 13.087C158.026 13.561 158.104 14.11 158.104 14.734C158.104 15.358 158.026 15.898 157.87 16.354C157.714 16.81 157.48 17.038 157.168 17.038ZM167.122 18.37C166.798 18.79 166.3 19 165.628 19C164.956 19 164.464 18.811 164.152 18.433C163.84 18.055 163.684 17.386 163.684 16.426L163.648 8.83C163.648 8.518 163.681 8.242 163.747 8.002C163.813 7.762 163.903 7.558 164.017 7.39C164.131 7.222 164.272 7.084 164.44 6.976C164.608 6.868 164.791 6.79 164.989 6.742C165.187 6.694 165.4 6.67 165.628 6.67C166.288 6.67 166.783 6.802 167.113 7.066C167.443 7.33 167.608 7.864 167.608 8.668V16.282C167.608 17.254 167.446 17.95 167.122 18.37Z" fill="white"/>
<path d="M8.928 11.8712C11.0968 11.8712 12.8608 9.2136 12.8608 5.9468C12.8608 2.6808 11.0968 0.023201 8.928 0.023201C6.7592 0.023201 4.9948 2.6808 4.9948 5.9468C4.9948 9.2136 6.7596 11.8712 8.928 11.8712Z" fill="white"/>
<path d="M27.6424 11.8712C29.8112 11.8712 31.5756 9.2136 31.5756 5.9468C31.5756 2.6808 29.8112 0.023201 27.6424 0.023201C25.474 0.023201 23.71 2.6808 23.71 5.9468C23.71 9.2136 25.4744 11.8712 27.6424 11.8712Z" fill="white"/>
<path d="M35.7178 16.612C35.4686 16.3988 35.1252 16.3744 34.8617 16.5559C30.6311 19.4466 24.8916 21.4571 18.6998 22.2173C12.5094 22.9774 6.4537 22.4152 1.6491 20.6343C1.34929 20.5232 1.02107 20.6288 0.832339 20.8958C0.642562 21.1633 0.633221 21.5352 0.808865 21.8215C3.41478 26.0761 11.0299 28.3353 19.3263 27.3166C27.6259 26.2975 34.4685 22.262 35.9656 17.504C36.0661 17.1842 35.9662 16.8253 35.7178 16.612Z" fill="white"/>
<g clip-path="url(#clip0_3558_227)">
<path d="M874.188 14.144C875.208 14.144 876.072 13.748 876.72 12.992L875.784 11.888C875.4 12.296 874.896 12.62 874.26 12.62C873.108 12.62 872.364 11.684 872.364 10.076C872.364 8.504 873.216 7.556 874.284 7.556C874.848 7.556 875.268 7.82 875.664 8.18L876.6 7.052C876.072 6.512 875.256 6.032 874.248 6.032C872.268 6.032 870.552 7.544 870.552 10.136C870.552 12.764 872.208 14.144 874.188 14.144ZM880.643 14.144C882.755 14.144 884.195 12.608 884.195 10.052C884.195 7.508 882.755 6.032 880.643 6.032C878.531 6.032 877.091 7.496 877.091 10.052C877.091 12.608 878.531 14.144 880.643 14.144ZM880.643 12.62C879.575 12.62 878.903 11.624 878.903 10.052C878.903 8.492 879.575 7.556 880.643 7.556C881.711 7.556 882.383 8.492 882.383 10.052C882.383 11.624 881.711 12.62 880.643 12.62ZM888.75 14.144C890.766 14.144 891.834 13.004 891.834 10.376V6.176H890.13V10.556C890.13 12.092 889.626 12.62 888.75 12.62C887.874 12.62 887.394 12.092 887.394 10.556V6.176H885.618V10.376C885.618 13.004 886.722 14.144 888.75 14.144ZM893.647 14H895.411V11.18H896.383L897.883 14H899.863L898.087 10.868C898.927 10.496 899.479 9.764 899.479 8.612C899.479 6.752 898.123 6.176 896.467 6.176H893.647V14ZM895.411 9.776V7.58H896.323C897.247 7.58 897.751 7.844 897.751 8.612C897.751 9.38 897.247 9.776 896.323 9.776H895.411ZM903.23 14.144C905.102 14.144 906.182 13.016 906.182 11.72C906.182 10.616 905.582 9.98 904.634 9.596L903.626 9.188C902.954 8.912 902.438 8.744 902.438 8.264C902.438 7.82 902.822 7.556 903.434 7.556C904.058 7.556 904.538 7.784 905.054 8.18L905.954 7.064C905.282 6.392 904.334 6.032 903.434 6.032C901.802 6.032 900.65 7.064 900.65 8.36C900.65 9.5 901.418 10.172 902.222 10.496L903.242 10.928C903.926 11.216 904.37 11.372 904.37 11.864C904.37 12.332 904.01 12.62 903.278 12.62C902.63 12.62 901.91 12.284 901.346 11.804L900.338 13.016C901.13 13.76 902.21 14.144 903.23 14.144ZM907.51 14H912.526V12.512H909.274V10.712H911.938V9.236H909.274V7.664H912.406V6.176H907.51V14ZM916.472 14.144C918.344 14.144 919.424 13.016 919.424 11.72C919.424 10.616 918.824 9.98 917.876 9.596L916.868 9.188C916.196 8.912 915.68 8.744 915.68 8.264C915.68 7.82 916.064 7.556 916.676 7.556C917.3 7.556 917.78 7.784 918.296 8.18L919.196 7.064C918.524 6.392 917.576 6.032 916.676 6.032C915.044 6.032 913.892 7.064 913.892 8.36C913.892 9.5 914.66 10.172 915.464 10.496L916.484 10.928C917.168 11.216 917.612 11.372 917.612 11.864C917.612 12.332 917.252 12.62 916.52 12.62C915.872 12.62 915.152 12.284 914.588 11.804L913.58 13.016C914.372 13.76 915.452 14.144 916.472 14.144Z" fill="white"/>
<path d="M972.924 14H974.688V11.348H975.66C977.316 11.348 978.72 10.532 978.72 8.696C978.72 6.8 977.328 6.176 975.612 6.176H972.924V14ZM974.688 9.944V7.58H975.504C976.464 7.58 976.992 7.88 976.992 8.696C976.992 9.512 976.524 9.944 975.552 9.944H974.688ZM980.072 14H981.836V11.18H982.808L984.308 14H986.288L984.512 10.868C985.352 10.496 985.904 9.764 985.904 8.612C985.904 6.752 984.548 6.176 982.892 6.176H980.072V14ZM981.836 9.776V7.58H982.748C983.672 7.58 984.176 7.844 984.176 8.612C984.176 9.38 983.672 9.776 982.748 9.776H981.836ZM987.432 14H989.196V6.176H987.432V14ZM994.305 14.144C995.325 14.144 996.189 13.748 996.837 12.992L995.901 11.888C995.517 12.296 995.013 12.62 994.377 12.62C993.225 12.62 992.481 11.684 992.481 10.076C992.481 8.504 993.333 7.556 994.401 7.556C994.965 7.556 995.385 7.82 995.781 8.18L996.717 7.052C996.189 6.512 995.373 6.032 994.365 6.032C992.385 6.032 990.669 7.544 990.669 10.136C990.669 12.764 992.325 14.144 994.305 14.144ZM998.026 14H999.79V6.176H998.026V14ZM1001.63 14H1003.31V11.228C1003.31 10.304 1003.17 9.26 1003.1 8.396H1003.15L1003.91 10.1L1005.95 14H1007.77V6.176H1006.09V8.936C1006.09 9.86 1006.23 10.964 1006.3 11.792H1006.25L1005.49 10.064L1003.45 6.176H1001.63V14ZM1013.07 14.144C1014.16 14.144 1015.11 13.724 1015.65 13.196V9.596H1012.8V11.036H1014.09V12.38C1013.9 12.536 1013.58 12.62 1013.25 12.62C1011.79 12.62 1011.06 11.684 1011.06 10.076C1011.06 8.504 1011.91 7.556 1013.12 7.556C1013.79 7.556 1014.2 7.832 1014.6 8.18L1015.52 7.052C1015 6.524 1014.19 6.032 1013.06 6.032C1010.97 6.032 1009.24 7.544 1009.24 10.136C1009.24 12.764 1010.92 14.144 1013.07 14.144Z" fill="white"/>
<path d="M1070.92 14H1075.78V12.512H1072.69V6.176H1070.92V14ZM1079.88 14.144C1081.99 14.144 1083.43 12.608 1083.43 10.052C1083.43 7.508 1081.99 6.032 1079.88 6.032C1077.77 6.032 1076.33 7.496 1076.33 10.052C1076.33 12.608 1077.77 14.144 1079.88 14.144ZM1079.88 12.62C1078.81 12.62 1078.14 11.624 1078.14 10.052C1078.14 8.492 1078.81 7.556 1079.88 7.556C1080.95 7.556 1081.62 8.492 1081.62 10.052C1081.62 11.624 1080.95 12.62 1079.88 12.62ZM1088.36 14.144C1089.45 14.144 1090.4 13.724 1090.94 13.196V9.596H1088.08V11.036H1089.38V12.38C1089.19 12.536 1088.86 12.62 1088.54 12.62C1087.08 12.62 1086.34 11.684 1086.34 10.076C1086.34 8.504 1087.2 7.556 1088.41 7.556C1089.08 7.556 1089.49 7.832 1089.88 8.18L1090.81 7.052C1090.29 6.524 1089.48 6.032 1088.35 6.032C1086.26 6.032 1084.53 7.544 1084.53 10.136C1084.53 12.764 1086.21 14.144 1088.36 14.144ZM1092.56 14H1094.32V6.176H1092.56V14ZM1096.17 14H1097.85V11.228C1097.85 10.304 1097.7 9.26 1097.63 8.396H1097.68L1098.45 10.1L1100.49 14H1102.3V6.176H1100.62V8.936C1100.62 9.86 1100.76 10.964 1100.83 11.792H1100.79L1100.02 10.064L1097.98 6.176H1096.17V14Z" fill="white"/>
</g>
<defs>
<clipPath id="clip0_3558_227">
<rect width="234" height="15" fill="white" transform="translate(870 2)"/>
</clipPath>
</defs>
</svg>
